<svg preserveAspectRatio="none" width="100%" height="100%" overflow="visible" style="display: block;" viewBox="0 0 10 10" fill="none" xmlns="http://www.w3.org/2000/svg">
<path id="Vector" d="M9.85403 9.14653C9.90048 9.19298 9.93733 9.24813 9.96247 9.30883C9.98762 9.36953 10.0006 9.43458 10.0006 9.50028C10.0006 9.56598 9.98762 9.63103 9.96247 9.69173C9.93733 9.75242 9.90048 9.80757 9.85403 9.85403C9.80757 9.90048 9.75242 9.93733 9.69173 9.96247C9.63103 9.98762 9.56598 10.0006 9.50028 10.0006C9.43458 10.0006 9.36953 9.98762 9.30883 9.96247C9.24813 9.93733 9.19298 9.90048 9.14653 9.85403L5.00028 5.70715L0.854028 9.85403C0.760208 9.94785 0.63296 10.0006 0.500278 10.0006C0.367596 10.0006 0.240348 9.94785 0.146528 9.85403C0.0527077 9.76021 2.61548e-09 9.63296 0 9.50028C-2.61548e-09 9.3676 0.0527077 9.24035 0.146528 9.14653L4.2934 5.00028L0.146528 0.854028C0.0527077 0.760208 0 0.63296 0 0.500278C0 0.367596 0.0527077 0.240348 0.146528 0.146528C0.240348 0.0527077 0.367596 0 0.500278 0C0.63296 0 0.760208 0.0527077 0.854028 0.146528L5.00028 4.2934L9.14653 0.146528C9.24035 0.0527077 9.3676 -2.61548e-09 9.50028 0C9.63296 2.61548e-09 9.76021 0.0527077 9.85403 0.146528C9.94785 0.240348 10.0006 0.367596 10.0006 0.500278C10.0006 0.63296 9.94785 0.760208 9.85403 0.854028L5.70715 5.00028L9.85403 9.14653Z" fill="var(--fill-0, #7A70FF)"/>
</svg>
